<svg width="866" height="848" viewBox="0 0 866 848" fill="none" xmlns="http://www.w3.org/2000/svg">
<mask id="path-1-inside-1_790_566" fill="white">
<path d="M674.334 93.9193C627.031 61.0003 570.698 39.7432 511.386 32.4309C452.074 25.1186 392.023 32.0274 337.682 52.4154C283.342 72.8034 236.765 105.9 202.954 148.151C169.143 190.403 149.375 240.212 145.774 292.23L146.481 292.283C150.075 240.377 169.8 190.676 203.538 148.515C237.276 106.355 283.753 73.3299 337.976 52.9859C392.199 32.6419 452.12 25.748 511.305 33.0445C570.489 40.341 626.7 61.5523 673.902 94.4003L674.334 93.9193Z"/>
</mask>
<path d="M674.334 93.9193C627.031 61.0003 570.698 39.7432 511.386 32.4309C452.074 25.1186 392.023 32.0274 337.682 52.4154C283.342 72.8034 236.765 105.9 202.954 148.151C169.143 190.403 149.375 240.212 145.774 292.23L146.481 292.283C150.075 240.377 169.8 190.676 203.538 148.515C237.276 106.355 283.753 73.3299 337.976 52.9859C392.199 32.6419 452.12 25.748 511.305 33.0445C570.489 40.341 626.7 61.5523 673.902 94.4003L674.334 93.9193Z" stroke="url(#paint0_linear_790_566)" stroke-opacity="0.8" stroke-width="2" mask="url(#path-1-inside-1_790_566)"/>
<mask id="path-2-inside-2_790_566" fill="white">
<path d="M753.896 399.892C725.495 353.337 683.325 314.1 631.914 286.395C580.504 258.691 521.795 243.565 462.093 242.643C402.392 241.721 343.953 255.038 293.053 281.162C242.153 307.287 200.714 345.233 173.188 390.925L173.817 391.225C201.284 345.631 242.633 307.767 293.423 281.699C344.214 255.631 402.526 242.343 462.099 243.263C521.672 244.183 580.254 259.276 631.554 286.92C682.854 314.565 724.933 353.717 753.273 400.173L753.896 399.892Z"/>
</mask>
<path d="M753.896 399.892C725.495 353.337 683.325 314.1 631.914 286.395C580.504 258.691 521.795 243.565 462.093 242.643C402.392 241.721 343.953 255.038 293.053 281.162C242.153 307.287 200.714 345.233 173.188 390.925L173.817 391.225C201.284 345.631 242.633 307.767 293.423 281.699C344.214 255.631 402.526 242.343 462.099 243.263C521.672 244.183 580.254 259.276 631.554 286.92C682.854 314.565 724.933 353.717 753.273 400.173L753.896 399.892Z" stroke="url(#paint1_linear_790_566)" stroke-opacity="0.8" stroke-width="2" mask="url(#path-2-inside-2_790_566)"/>
<mask id="path-3-inside-3_790_566" fill="white">
<path d="M787 251.572C750.856 204.277 697.862 164.005 633.709 135.082C569.557 106.16 496.669 89.6789 422.875 87.4097C349.081 85.1406 277.168 97.169 214.86 122.203C152.551 147.237 102.201 184.331 69.216 229.501L69.9998 229.816C102.913 184.743 153.155 147.729 215.329 122.749C277.504 97.769 349.262 85.7666 422.897 88.0308C496.532 90.2951 569.262 106.74 633.276 135.601C697.29 164.461 750.17 204.646 786.236 251.839L787 251.572Z"/>
</mask>
<path d="M787 251.572C750.856 204.277 697.862 164.005 633.709 135.082C569.557 106.16 496.669 89.6789 422.875 87.4097C349.081 85.1406 277.168 97.169 214.86 122.203C152.551 147.237 102.201 184.331 69.216 229.501L69.9998 229.816C102.913 184.743 153.155 147.729 215.329 122.749C277.504 97.769 349.262 85.7666 422.897 88.0308C496.532 90.2951 569.262 106.74 633.276 135.601C697.29 164.461 750.17 204.646 786.236 251.839L787 251.572Z" stroke="url(#paint2_linear_790_566)" stroke-opacity="0.8" stroke-width="2" mask="url(#path-3-inside-3_790_566)"/>
<defs>
<linearGradient id="paint0_linear_790_566" x1="541.5" y1="159.5" x2="779.643" y2="133.778" gradientUnits="userSpaceOnUse">
<stop stop-color="#FFFAFA" stop-opacity="0"/>
<stop offset="1" stop-color="#FFFAFA"/>
</linearGradient>
<linearGradient id="paint1_linear_790_566" x1="532.5" y1="372.5" x2="770.643" y2="346.778" gradientUnits="userSpaceOnUse">
<stop stop-color="#FFFAFA" stop-opacity="0"/>
<stop offset="1" stop-color="#FFFAFA"/>
</linearGradient>
<linearGradient id="paint2_linear_790_566" x1="512.803" y1="219.133" x2="802.677" y2="174.119" gradientUnits="userSpaceOnUse">
<stop stop-color="#FFFAFA" stop-opacity="0"/>
<stop offset="1" stop-color="#FFFAFA"/>
</linearGradient>
</defs>
</svg>
